# xmcd
#
# Track frame offsets:
#	150
#	28152
#	56722
#	75835
#	100173
#	137407
#	184192
#	206963
#	238000
#
# Disc length: 3556 seconds
#
# Revision: 1
# Processed by: cddbd v1.5.2PL0 Copyright (c) Steve Scherf et al.
# Submitted via: audiograbber 1.83.01
#
DISCID=750de209
DTITLE=Grateful Dead - 80-10-31 Radio City Music Hall, New York NY
DYEAR=1900
DGENRE=
TTITLE0=Jack Straw
TTITLE1=Cold Rain and Snow
TTITLE2=Me and My Uncle
TTITLE3=Mexicali Blues
TTITLE4=Ramble On Rose
TTITLE5=Little Red Rooster
TTITLE6=Brown Eyed Women
TTITLE7=Looks Like Rain
TTITLE8=Deal
EXTD=
EXTT0=
EXTT1=
EXTT2=
EXTT3=
EXTT4=
EXTT5=
EXTT6=
EXTT7=
EXTT8=
PLAYORDER=
